<svg width="41" height="41" viewBox="0 0 41 41" fill="none" xmlns="http://www.w3.org/2000/svg">
<path d="M30.75 34.1666C30.75 31.4482 29.6701 28.841 27.7478 26.9188C25.8256 24.9965 23.2184 23.9166 20.5 23.9166M20.5 23.9166C17.7815 23.9166 15.1744 24.9965 13.2521 26.9188C11.3299 28.841 10.25 31.4482 10.25 34.1666M20.5 23.9166C24.2739 23.9166 27.3333 20.8572 27.3333 17.0833C27.3333 13.3093 24.2739 10.25 20.5 10.25C16.726 10.25 13.6666 13.3093 13.6666 17.0833C13.6666 20.8572 16.726 23.9166 20.5 23.9166ZM37.5833 20.5C37.5833 29.9348 29.9348 37.5833 20.5 37.5833C11.0651 37.5833 3.41663 29.9348 3.41663 20.5C3.41663 11.0651 11.0651 3.41663 20.5 3.41663C29.9348 3.41663 37.5833 11.0651 37.5833 20.5Z" stroke="white" stroke-width="2" stroke-linecap="round" stroke-linejoin="round"/>
</svg>
